<svg width="30" height="30" viewBox="0 0 30 30" fill="none" xmlns="http://www.w3.org/2000/svg">
<path fill-rule="evenodd" clip-rule="evenodd" d="M28.125 15C28.125 22.2487 22.2487 28.125 15 28.125C7.75126 28.125 1.875 22.2487 1.875 15C1.875 7.75126 7.75126 1.875 15 1.875C22.2487 1.875 28.125 7.75126 28.125 15ZM19.6162 25.2623C18.2077 25.8969 16.6451 26.25 15 26.25C12.2841 26.25 9.79304 25.2876 7.84913 23.6853C9.87135 20.2919 13.1239 17.719 16.9903 16.5807C18.1009 19.367 18.9838 22.2685 19.6162 25.2623ZM21.3269 24.3036C20.7038 21.5017 19.8685 18.7798 18.8386 16.1557C19.6959 16.0122 20.5765 15.9375 21.4746 15.9375C23.0968 15.9375 24.6606 16.1809 26.1324 16.6327C25.6694 19.8171 23.8726 22.5691 21.3269 24.3036ZM26.2464 14.7125C24.7273 14.2888 23.1268 14.0625 21.4746 14.0625C20.3229 14.0625 19.1969 14.1724 18.1065 14.3821C17.8221 13.7258 17.5253 13.076 17.2165 12.4331C19.671 11.3436 21.9393 9.91108 23.9604 8.19647C25.3431 10.0148 26.185 12.2667 26.2464 14.7125ZM22.7049 6.80262C20.8076 8.40546 18.6785 9.74207 16.3751 10.7551C15.1591 8.42987 13.7828 6.20187 12.261 4.08578C13.1377 3.86645 14.0553 3.75 15 3.75C17.9813 3.75 20.6918 4.90971 22.7049 6.80262ZM10.4086 4.72651C7.10601 6.20475 4.64631 9.22875 3.94978 12.8783C4.58979 12.9253 5.23637 12.9492 5.88869 12.9492C8.95236 12.9492 11.8922 12.4211 14.6226 11.4508C13.3825 9.10044 11.9724 6.85357 10.4086 4.72651ZM3.75286 14.7438C3.75096 14.829 3.75 14.9144 3.75 15C3.75 17.805 4.7766 20.3703 6.47457 22.3406C8.71128 18.7962 12.1706 16.0988 16.2612 14.8417C16.0086 14.2681 15.7463 13.6997 15.4744 13.1369C12.4845 14.2285 9.25592 14.8242 5.88869 14.8242C5.17025 14.8242 4.45797 14.7971 3.75286 14.7438Z" fill="#E84C88"/>
</svg>
