<svg width="30" height="30" viewBox="0 0 30 30" fill="none" xmlns="http://www.w3.org/2000/svg">
<path fill-rule="evenodd" clip-rule="evenodd" d="M15.0001 -8.28479e-06C6.71687 -8.28479e-06 0 6.88558 0 15.3797C0 22.1749 4.29799 27.9399 10.258 29.9736C11.0077 30.1159 11.2829 29.6399 11.2829 29.2337C11.2829 28.867 11.269 27.6554 11.2625 26.3703C7.08947 27.3007 6.2089 24.5557 6.2089 24.5557C5.52656 22.778 4.54341 22.3053 4.54341 22.3053C3.18245 21.3508 4.646 21.3704 4.646 21.3704C6.15227 21.4786 6.9454 22.9555 6.9454 22.9555C8.28326 25.3065 10.4545 24.6268 11.3105 24.2338C11.4451 23.2398 11.8338 22.561 12.2628 22.1772C8.93107 21.7883 5.42869 20.4696 5.42869 14.5765C5.42869 12.8974 6.01466 11.5254 6.97421 10.4483C6.81846 10.0607 6.30503 8.4967 7.11952 6.37826C7.11952 6.37826 8.37913 5.9649 11.2456 7.95474C12.4421 7.61397 13.7254 7.44309 15.0001 7.43723C16.2749 7.44309 17.5591 7.61397 18.7579 7.95474C21.6209 5.9649 22.8787 6.37826 22.8787 6.37826C23.6952 8.4967 23.1815 10.0607 23.0258 10.4483C23.9876 11.5254 24.5696 12.8974 24.5696 14.5765C24.5696 20.4836 21.0605 21.7842 17.7203 22.165C18.2583 22.6423 18.7377 23.5782 18.7377 25.0131C18.7377 27.0709 18.7204 28.7271 18.7204 29.2337C18.7204 29.643 18.9904 30.1225 19.7507 29.9715C25.7075 27.9356 30 22.1726 30 15.3797C30 6.88558 23.2841 -8.28479e-06 15.0001 -8.28479e-06" fill="#1B1817"/>
<path d="M5.68126 22.082C5.64823 22.1586 5.53099 22.1813 5.42418 22.1288C5.31538 22.0787 5.25427 21.9745 5.28954 21.8978C5.32183 21.8194 5.43933 21.7975 5.54788 21.8497C5.65692 21.9001 5.71902 22.0053 5.68126 22.082Z" fill="#1B1817"/>
<path d="M6.2889 22.7767C6.21736 22.8447 6.07752 22.8132 5.98263 22.7057C5.88452 22.5985 5.86614 22.4551 5.93867 22.3861C6.01244 22.3183 6.14806 22.3501 6.24643 22.4571C6.34454 22.5656 6.36367 22.708 6.2889 22.7767Z" fill="#1B1817"/>
<path d="M6.88033 23.6625C6.78842 23.728 6.63814 23.6666 6.54524 23.5298C6.45334 23.3931 6.45334 23.229 6.54723 23.1633C6.64038 23.0976 6.78843 23.157 6.88257 23.2925C6.97423 23.4315 6.97422 23.5955 6.88033 23.6625" fill="#1B1817"/>
<path d="M7.69061 24.5183C7.6084 24.6112 7.43328 24.5863 7.3051 24.4594C7.17395 24.3354 7.13744 24.1594 7.21991 24.0665C7.30312 23.9732 7.47923 23.9995 7.60839 24.1253C7.73855 24.2491 7.7783 24.4263 7.69061 24.5183Z" fill="#1B1817"/>
<path d="M8.80836 25.0152C8.7721 25.1356 8.60343 25.1904 8.43353 25.1392C8.26388 25.0865 8.15284 24.9454 8.18712 24.8236C8.2224 24.7024 8.3918 24.6454 8.56294 24.7001C8.73235 24.7526 8.84363 24.8926 8.80836 25.0152Z" fill="#1B1817"/>
<path d="M10.0359 25.1073C10.0402 25.2342 9.8961 25.3393 9.71775 25.3416C9.53841 25.3457 9.39334 25.2431 9.39136 25.1183C9.39136 24.9902 9.5322 24.886 9.71154 24.883C9.88989 24.8794 10.0359 24.9813 10.0359 25.1073Z" fill="#1B1817"/>
<path d="M11.1783 24.9079C11.1997 25.0317 11.0757 25.1588 10.8986 25.1927C10.7245 25.2253 10.5633 25.1489 10.5412 25.0261C10.5196 24.8993 10.6457 24.7722 10.8196 24.7393C10.997 24.7077 11.1557 24.7821 11.1783 24.9079" fill="#1B1817"/>
</svg>
